<svg width="53" height="53" viewBox="0 0 53 53" fill="none" xmlns="http://www.w3.org/2000/svg">
<g clip-path="url(#clip0_1082_1584)">
<g clip-path="url(#clip1_1082_1584)">
<path d="M12.191 18.0474C11.7873 17.6437 11.131 17.6437 10.7274 18.0474C10.3226 18.4522 10.3226 19.1074 10.7274 19.5111C11.1311 19.9159 11.7874 19.9159 12.191 19.5111C12.5956 19.1074 12.5956 18.4522 12.191 18.0474Z" fill="white"/>
<path d="M26.2101 46.3452C26.6665 45.727 26.9131 44.9822 26.9131 44.1991C26.9131 42.2015 25.2879 40.5762 23.2902 40.5762H5.69315C4.72497 40.5762 3.81517 40.953 3.13124 41.6371C2.44701 42.3211 2.07021 43.2309 2.07021 44.1991C2.07021 45.0013 2.33272 45.7431 2.77567 46.344C1.12739 47.2106 0 48.9393 0 50.9273V51.9625C0 52.5342 0.463543 52.9976 1.03516 52.9976H27.9482C28.5198 52.9976 28.9833 52.5342 28.9833 51.9625V50.9273C28.9833 48.9402 27.8571 47.2122 26.2101 46.3452ZM4.59506 43.1008C4.88811 42.8077 5.27816 42.6463 5.69315 42.6463H23.2902C24.1464 42.6463 24.8428 43.3428 24.8428 44.1989C24.8428 44.614 24.6813 45.0039 24.3882 45.2971C24.0951 45.5903 23.7051 45.7516 23.2901 45.7516H5.69315C4.83697 45.7516 4.14052 45.0551 4.14052 44.199C4.14052 43.784 4.3019 43.394 4.59506 43.1008ZM2.07021 50.9273C2.07021 49.2151 3.46332 47.822 5.17557 47.822H5.69315H23.2902H23.8078C25.52 47.822 26.9131 49.2151 26.9131 50.9273H2.07021Z" fill="white"/>
<path d="M52.0403 43.4893C51.6887 42.9445 51.2693 42.4627 50.7934 42.0574L45.9566 37.8388C45.919 37.7821 45.8753 37.7282 45.8253 37.6782C45.7412 37.5943 45.646 37.5288 45.5448 37.4797L42.6197 34.9286L29.0809 23.1184C29.6351 22.539 29.9403 21.7813 29.9403 20.9757C29.9403 20.1457 29.6172 19.3657 29.03 18.7786C28.7739 18.5228 28.4828 18.3216 28.1717 18.1743L29.4243 16.9218C29.7744 17.0149 30.1341 17.0625 30.4941 17.0625C31.5542 17.0624 32.6144 16.6589 33.4214 15.8519C34.2038 15.0696 34.6346 14.0298 34.6346 12.9239C34.6346 11.8181 34.2038 10.7783 33.4215 9.99599L24.6384 1.2131C23.8562 0.430832 22.8163 0 21.7101 0C20.6044 0 19.5648 0.430832 18.7827 1.2131C17.7015 2.29422 17.3457 3.82925 17.7127 5.21036L5.2158 17.7072C4.87047 17.6154 4.51117 17.5669 4.1441 17.5669C3.03773 17.5669 1.99833 17.9974 1.21668 18.779C-0.397748 20.3934 -0.397748 23.0203 1.21668 24.6349L9.99967 33.4179C10.807 34.2252 11.8673 34.6288 12.9276 34.6288C13.988 34.6288 15.0483 34.2252 15.8557 33.4179C16.9368 32.3367 17.2927 30.8018 16.9256 29.4207L18.1755 28.1706C18.3257 28.4843 18.5296 28.7737 18.7828 29.0268C19.3693 29.6133 20.1491 29.9364 20.9788 29.9364C21.7837 29.9364 22.541 29.6318 23.1212 29.0782L37.5416 45.6462C37.5813 45.7084 37.6277 45.7675 37.6819 45.8217C37.7005 45.8402 37.7201 45.8571 37.7397 45.8739L42.0367 50.811C42.1435 50.937 42.2577 51.0611 42.3763 51.1796C43.5564 52.3593 45.1153 52.9996 46.7519 52.9996C47.0404 52.9996 47.3315 52.9797 47.6231 52.9393C49.5722 52.6696 51.2568 51.5036 52.2445 49.7399C53.3265 47.8069 53.246 45.3529 52.0403 43.4893ZM20.2467 2.67702C20.6379 2.28583 21.1577 2.07031 21.7102 2.07031C22.2634 2.07031 22.7835 2.28583 23.1746 2.67702L31.9577 11.46C32.3489 11.8512 32.5643 12.3712 32.5643 12.924C32.5643 13.4769 32.3489 13.9969 31.9576 14.388C31.1507 15.1952 29.8375 15.1952 29.0306 14.388L20.2472 5.60465C20.247 5.60444 20.2469 5.60434 20.2467 5.60413C19.4396 4.79712 19.4396 3.48403 20.2467 2.67702ZM14.3917 31.954C13.5845 32.7612 12.2708 32.7613 11.4636 31.954L2.6806 23.171C1.87328 22.3637 1.87328 21.0503 2.6806 20.2429C3.07106 19.8523 3.59092 19.6372 4.1441 19.6372C4.69719 19.6372 5.21673 19.8522 5.60709 20.2425L14.3916 29.027C15.1988 29.8339 15.1988 31.1471 14.3917 31.954ZM18.75 24.6686L15.8555 27.5631L7.07163 18.7792L18.7827 7.06794L27.5665 15.8519L24.6668 18.7516C24.6574 18.7605 24.6482 18.7692 24.6382 18.7791L18.7857 24.6318C18.7736 24.6437 18.7619 24.6561 18.75 24.6686ZM22.4461 26.828C22.444 26.8301 22.442 26.8321 22.44 26.8341L21.711 27.5631C21.5155 27.7585 21.2555 27.8662 20.9787 27.8662C20.702 27.8662 20.442 27.7585 20.2466 27.563C20.0508 27.3674 19.9431 27.1071 19.9431 26.8302C19.9431 26.5592 20.0465 26.3043 20.2342 26.1119L26.1139 20.2321C26.5169 19.8402 27.1685 19.8451 27.5667 20.2429C27.7623 20.4385 27.8701 20.6988 27.8701 20.9757C27.8701 21.2524 27.7626 21.5119 27.5666 21.7074L26.8419 22.4321C26.8369 22.437 26.8319 22.442 26.8271 22.4469L22.4461 26.828ZM24.5897 27.6122L27.615 24.5868L40.4243 35.7598L35.7501 40.434L24.5897 27.6122ZM37.1125 41.9994L41.988 37.1238L43.5518 38.4878L38.4748 43.5649L37.1125 41.9994ZM50.4383 48.7285C49.7702 49.9213 48.6407 50.7086 47.3394 50.8887C46.0411 51.0684 44.7655 50.6408 43.8399 49.7156C43.7603 49.6361 43.6841 49.5531 43.6131 49.4691C43.6097 49.4651 43.6064 49.4612 43.603 49.4574L39.8371 45.1302L45.1155 39.8518L49.4373 43.6215C49.4405 43.6244 49.4438 43.6272 49.4472 43.6301C49.7707 43.9051 50.0577 44.2354 50.3013 44.6129C51.0841 45.8224 51.139 47.4766 50.4383 48.7285Z" fill="white"/>
<path d="M19.5106 10.7275C19.1063 10.3233 18.451 10.3233 18.0467 10.7275L13.6547 15.1194C13.2505 15.5237 13.2505 16.1791 13.6547 16.5833C13.8569 16.7854 14.1218 16.8865 14.3867 16.8865C14.6516 16.8865 14.9165 16.7853 15.1187 16.5833L19.5106 12.1913C19.9148 11.7872 19.9148 11.1318 19.5106 10.7275Z" fill="white"/>
</g>
</g>
<defs>
<clipPath id="clip0_1082_1584">
<rect width="53" height="53" fill="white"/>
</clipPath>
<clipPath id="clip1_1082_1584">
<rect width="53" height="53" fill="white"/>
</clipPath>
</defs>
</svg>
